# xmcd
#
# Track frame offsets:
#	150
#	20599
#	31351
#	44806
#	60904
#	77964
#	97961
#	117315
#	130668
#	150622
#	164494
#	176374
#	191722
#	204734
#	228653
#	245911
#	266525
#	285793
#
# Disc length: 4039 seconds
#
# Revision: 1
# Processed by: cddbd v1.5.2PL0 Copyright (c) Steve Scherf et al.
# Submitted via: audiograbber 1.83.01
#
DISCID=fa0fc512
DTITLE=Rolling Stones - Exile On Main Street (Remastered) CD 1
DYEAR=2010
DGENRE=
TTITLE0=Rocks Off
TTITLE1=Rip This Joint
TTITLE2=Shake Your Hips
TTITLE3=Casino Boogie
TTITLE4=Tumblin Dice
TTITLE5=Sweet Virginia
TTITLE6=Torn And Frayed
TTITLE7=Sweet Black Angel
TTITLE8=Loving Cup
TTITLE9=Happy
TTITLE10=Turn On The Run
TTITLE11=Ventilator Blues
TTITLE12=I Just Want To See His Face
TTITLE13=Let It Loose
TTITLE14=All Down The Line
TTITLE15=Stop Breaking Down
TTITLE16=Shine A Light
TTITLE17=Soul Survivor
EXTD=
EXTT0=
EXTT1=
EXTT2=
EXTT3=
EXTT4=
EXTT5=
EXTT6=
EXTT7=
EXTT8=
EXTT9=
EXTT10=
EXTT11=
EXTT12=
EXTT13=
EXTT14=
EXTT15=
EXTT16=
EXTT17=
PLAYORDER=
